<?xml version="1.0" encoding="UTF-8" standalone="no"?>
<!-- Created with Inkscape (http://www.inkscape.org/) -->

<svg
   xmlns:osb="http://www.openswatchbook.org/uri/2009/osb"
   xmlns:dc="http://purl.org/dc/elements/1.1/"
   xmlns:cc="http://creativecommons.org/ns#"
   xmlns:rdf="http://www.w3.org/1999/02/22-rdf-syntax-ns#"
   xmlns:svg="http://www.w3.org/2000/svg"
   xmlns="http://www.w3.org/2000/svg"
   xmlns:sodipodi="http://sodipodi.sourceforge.net/DTD/sodipodi-0.dtd"
   xmlns:inkscape="http://www.inkscape.org/namespaces/inkscape"
   id="svg3336"
   version="1.1"
   inkscape:version="0.91 r13725"
   height="32"
   width="32"
   viewBox="0 0 32 32"
   sodipodi:docname="Kreuzmich Logo HiRes Vektor einfarbig trans dick-klein.svg"
   inkscape:export-filename="C:\Users\Raphael\Documents\Fachschaft\Kreuzmich\Logo\Kreuzmich Logo HiRes Vektor einfarbig trans dick.png"
   inkscape:export-xdpi="90"
   inkscape:export-ydpi="90">
  <path
     style="fill:#fff"
     d="M 6.2996628,30.583636 C 4.3340951,30.133101 2.483877,28.698591 1.0779568,26.535149 L 0.54893838,25.668813 c -0.046983,0 -0.49352107,-1.334692 -0.49352107,-1.334692 0,0 0.34290464,-0.0076 0.51348887,-0.02377 0.64227962,-0.06078 1.56094662,-0.178349 1.91584772,-0.27474 0.8493828,-0.230689 1.4986449,-0.472219 1.4986449,-0.557505 0,-0.01468 -0.1982332,-0.417345 -0.4405186,-0.894804 C 2.3458256,20.224325 1.8389386,17.280233 2.1820085,14.679115 2.2455435,14.197401 2.3351551,13.624613 2.3811457,13.406254 2.7181099,11.806378 3.533446,9.9015181 4.4943525,8.4691951 c 0.4625625,-0.689494 0.5273716,-0.831973 0.5273716,-1.1594 0,-0.291124 0.070299,-0.493602 0.3193463,-0.919784 0.7231255,-1.237458 1.7428097,-2.465672 2.8700533,-3.456998 0.7202776,-0.63343 2.2295063,-1.743735 2.2891593,-1.684083 0.03073,0.03073 0.511779,1.876729 0.511779,1.96394 0,0.0338 -0.01167,0.03701 0.958454,-0.263355 1.492325,-0.462044 2.206532,-0.557942 4.153302,-0.557671 1.820118,2.55e-4 2.187276,0.04119 3.582494,0.399453 1.042044,0.267573 2.701994,0.966279 3.561154,1.498958 0.307082,0.190391 0.324401,0.192114 0.718841,0.0715 0.557346,-0.170425 2.105306,-0.170734 2.640569,-5.29e-4 0.898015,0.285558 1.479607,0.620428 2.103792,1.211325 0.578927,0.548053 0.796659,0.910975 1.725866,2.876734 0.506958,1.072481 0.520256,1.11638 0.384447,1.268994 -0.220371,0.24764 -0.614207,0.3771309 -1.310264,0.4308069 -0.717091,0.0553 -0.784581,0.113837 -0.597609,0.518318 0.319711,0.691651 0.512176,1.252725 0.803312,2.341822 0.714848,2.674146 0.421578,6.433903 -0.684931,8.780863 -0.08156,0.172985 -0.148284,0.324353 -0.148284,0.336375 0,0.109484 1.843924,0.424115 2.495974,0.425895 0.352401,9.64e-4 0.53913,0.03331 0.53913,0.09339 0,0.172039 -1.57861,3.162129 -2.002373,3.792755 -0.507536,0.755292 -1.310096,1.579245 -1.915273,1.966328 -0.243786,0.155932 -0.729004,0.38325 -1.078261,0.505153 -0.558434,0.194914 -0.745776,0.220895 -1.553529,0.215457 -0.679506,-0.0045 -1.084789,-0.05148 -1.557488,-0.180209 -0.351433,-0.09571 -0.715348,-0.192493 -0.808699,-0.215071 -0.104176,-0.0252 -0.458907,0.09692 -0.918519,0.316205 -1.169795,0.558119 -2.060679,0.83546 -3.823828,1.190399 -0.692307,0.139367 -3.611049,0.13858 -4.313044,-0.0012 -1.139213,-0.226785 -1.6624,-0.354515 -2.209873,-0.539516 -0.708195,-0.239309 -0.789482,-0.23968 -1.097241,-0.005 -0.42045,0.320632 -1.2346603,0.693859 -1.8658571,0.855292 -0.6956588,0.177921 -1.8084393,0.194532 -2.4946611,0.03724 z M 18.486724,29.346383 c 1.210082,-0.234911 3.07463,-0.85935 3.334255,-1.116646 0.03643,-0.03611 -0.148398,-0.196037 -0.410737,-0.355398 -0.667613,-0.405555 -1.954256,-1.34529 -2.570394,-1.877361 -0.900019,-0.777217 -2.598848,-2.339953 -2.774665,-2.552388 -0.08649,-0.104495 -0.119477,-0.100301 -0.269137,0.0342 -0.09381,0.08432 -0.738009,0.945882 -1.431547,1.914591 -1.250849,1.74714 -1.843653,2.515683 -2.382978,3.089419 -0.154096,0.163929 -0.264539,0.312895 -0.245428,0.331039 0.07867,0.07469 1.19656,0.38862 1.79191,0.503211 1.535875,0.295621 3.526334,0.307395 4.958721,0.02933 z M 5.3647835,22.722613 C 6.2860449,22.09774 6.955039,21.479677 8.0982511,20.197248 9.4797029,18.647564 10.213327,17.770206 10.212824,17.668379 10.21191,17.484573 9.9534136,17.155204 8.647297,15.673671 7.9491418,14.881751 7.1550019,13.922342 6.8825421,13.541654 5.9750334,12.273652 5.4144853,11.014728 5.1708543,9.6974031 5.113696,9.3883461 5.0418811,9.1354811 5.0112656,9.1354811 c -0.078929,0 -0.6101848,0.9561349 -0.9763292,1.7571659 -1.3697502,2.996663 -1.5544408,6.551285 -0.5005053,9.63291 0.3473125,1.015516 1.0873985,2.587378 1.218225,2.587378 0.020168,0 0.295625,-0.175646 0.6121274,-0.390322 z M 28.122026,21.815029 c 0.151159,-0.234633 0.585067,-1.44468 0.783293,-2.184381 0.50067,-1.86831 0.528486,-4.489914 0.0673,-6.341866 -0.232672,-0.9343 -0.870906,-2.649991 -1.002056,-2.693707 -0.126019,-0.042 -1.516959,0.826698 -2.19881,1.373253 -1.247554,1.000004 -2.749085,2.565219 -4.281842,4.463445 -0.436701,0.540827 -0.554128,0.737872 -0.499783,0.838648 0.116757,0.2165 2.084999,2.107091 2.601654,2.499008 1.03583,0.785744 2.381397,1.510654 3.674074,1.979364 0.788385,0.285859 0.718189,0.280428 0.85618,0.06624 z M 16.247621,10.433947 c 2.194748,-2.5902519 4.061237,-4.2986709 5.719819,-5.2354119 0.67513,-0.381304 0.673359,-0.370194 0.106776,-0.669537 -1.973461,-1.042642 -4.802694,-1.608227 -6.9762,-1.394595 -1.526572,0.150046 -3.378141,0.578152 -3.67226,0.849073 -0.08651,0.07968 -0.03818,0.267953 0.268765,1.047121 0.420636,1.067761 1.139297,2.53995 1.720935,3.525365 0.657853,1.114538 1.826994,2.8159109 1.935025,2.8159109 0.05633,0 0.460046,-0.422066 0.89714,-0.937926 z"
     id="path3348"
     inkscape:connector-curvature="0"
     sodipodi:nodetypes="ccccasssssssssssssssssssssssssssssssssssssssccccsssssscsccsscsssssssssssssssssssssssssss" />
  <path
     style="opacity:1;fill:none;fill-opacity:0;fill-rule:evenodd;stroke:#fff;stroke-width:1.91690803;stroke-linecap:butt;stroke-miterlimit:4;stroke-dasharray:none;stroke-opacity:1"
     d="M 29.275536,16.343965 A 13.204225,13.225628 0 0 1 16.071309,29.569594 13.204225,13.225628 0 0 1 2.867084,16.343965 13.204225,13.225628 0 0 1 16.071309,3.1183381 13.204225,13.225628 0 0 1 29.275536,16.343965 Z"
     id="path4157"
     inkscape:connector-curvature="0" />
</svg>
